<svg version="1.1" id="Layer_1" xmlns="http://www.w3.org/2000/svg" xmlns:xlink="http://www.w3.org/1999/xlink" x="0px" y="0px"
	 width="100%" viewBox="0 0 512 512" enable-background="new 0 0 512 512" xml:space="preserve">
<path fill="#FFCC00" opacity="1.000000" stroke="none" 
	d="
M233.000000,513.000000 
	C155.352158,513.000000 78.204315,513.000000 1.028239,513.000000 
	C1.028239,342.393799 1.028239,171.787598 1.028239,1.090693 
	C171.564529,1.090693 342.129120,1.090693 512.846863,1.090693 
	C512.846863,171.666565 512.846863,342.333252 512.846863,513.000000 
	C419.787567,513.000000 326.643768,513.000000 233.000000,513.000000 
M160.049469,313.377960 
	C154.322632,326.325317 143.863190,333.285034 130.558395,336.560669 
	C107.826988,342.157166 76.711517,334.991516 75.093079,298.376770 
	C73.476181,261.796814 74.222588,225.110489 74.063560,188.470230 
	C74.041351,183.353409 77.112129,179.895401 82.041924,178.941162 
	C86.079002,178.159714 90.325966,177.923248 94.432686,178.185211 
	C98.973663,178.474869 99.011749,176.075180 99.142265,172.713120 
	C99.288185,168.954239 98.030075,167.922714 94.282791,167.949219 
	C70.793755,168.115402 47.302456,168.100006 23.813145,167.949997 
	C20.122131,167.926422 18.922527,168.985565 18.870806,172.736649 
	C18.814932,176.788742 19.901320,178.661102 24.179749,178.119736 
	C26.148075,177.870667 28.174206,178.067871 30.174021,178.080109 
	C38.452076,178.130798 40.996567,180.399765 41.101974,188.738113 
	C41.287342,203.401642 40.982010,218.072693 41.259743,232.733429 
	C41.669830,254.381073 41.715141,276.069916 43.187969,297.654388 
	C44.987793,324.030975 60.249271,342.514465 83.911522,348.557251 
	C97.740997,352.088959 111.858231,353.214355 126.035118,350.892029 
	C145.315811,347.733673 160.685242,338.410767 170.582977,321.197266 
	C177.309814,309.498413 179.608170,296.507782 179.927734,283.257538 
	C180.630844,254.105164 180.842514,224.941299 181.434631,195.785767 
	C181.760483,179.740677 182.962250,178.520172 198.985687,178.184830 
	C203.595032,178.088379 202.877213,175.481445 203.052429,172.649796 
	C203.259811,169.298019 202.266373,167.808426 198.589981,167.971420 
	C188.604782,168.414154 178.606552,168.720764 168.612427,168.752991 
	C161.118713,168.777145 153.624405,168.203598 146.127747,168.113266 
	C144.735199,168.096481 142.538010,168.732025 142.065536,169.716217 
	C139.791245,174.453690 142.201996,178.049637 147.313385,178.076477 
	C148.313309,178.081726 149.313339,178.071152 150.313202,178.079559 
	C158.180603,178.145737 161.916061,181.354645 163.085617,189.109650 
	C163.433228,191.414642 163.871231,193.731750 163.925461,196.051315 
	C164.630142,226.191177 165.724518,256.333618 165.649261,286.472717 
	C165.627426,295.213684 162.210281,303.946228 160.049469,313.377960 
M407.009857,351.450958 
	C442.920563,355.211060 470.971741,341.454376 492.467499,313.098633 
	C497.174408,306.889587 496.957520,306.062042 489.623199,302.265198 
	C488.971466,302.955292 488.199768,303.606354 487.629120,304.401703 
	C479.718079,315.427338 469.245850,323.276367 456.699341,328.044403 
	C424.398773,340.319519 396.839081,334.898499 378.419678,308.134216 
	C355.931458,275.457794 352.628357,239.700180 368.903931,203.288055 
	C378.123657,182.661560 395.295898,172.659637 418.084076,172.947128 
	C439.818787,173.221313 456.355682,183.451782 468.532013,200.716339 
	C473.557007,207.841171 477.172913,216.039154 480.800903,224.034378 
	C482.468536,227.709351 484.111023,228.212402 487.571899,226.966446 
	C491.159851,225.674789 490.021332,223.054550 489.767578,220.764099 
	C487.897583,203.885086 486.000519,187.008011 483.873932,170.160370 
	C483.689026,168.695343 481.773346,166.337921 480.695557,166.356552 
	C479.075134,166.384583 477.010681,167.813614 475.998810,169.253845 
	C474.663239,171.154877 474.163208,173.642914 473.130249,176.330750 
	C458.601990,168.373917 443.731537,163.797852 427.951538,162.536118 
	C395.802612,159.965637 367.800140,168.478836 346.954712,194.378433 
	C328.629761,217.146362 322.281219,243.471115 326.103973,272.206085 
	C332.346588,319.130249 364.066132,347.513763 407.009857,351.450958 
M216.035339,303.186340 
	C215.596985,300.225983 214.930618,297.277466 214.776352,294.302399 
	C214.570206,290.327637 211.660446,290.728638 209.112503,290.296143 
	C205.807571,289.735168 205.618225,292.121490 205.390793,294.270599 
	C204.637192,301.392059 203.986877,308.524506 203.304901,315.653503 
	C202.559494,323.445587 201.671707,331.229553 201.207687,339.038574 
	C201.112595,340.639221 202.311005,343.371185 203.467743,343.714844 
	C204.800598,344.110748 206.812576,342.544342 208.398148,341.607605 
	C209.039139,341.228912 209.383972,340.289032 209.774612,339.557037 
	C211.371826,336.564270 213.562775,336.067352 216.358704,337.910980 
	C217.748352,338.827332 219.143250,339.735809 220.542130,340.638000 
	C239.691711,352.988068 260.585907,355.447235 281.837677,348.796265 
	C304.801178,341.609589 315.348938,323.631012 317.750458,300.606995 
	C320.486267,274.378082 309.674713,255.675323 285.722931,244.735138 
	C279.088654,241.704849 271.897827,239.907684 265.201752,236.994431 
	C256.540314,233.226105 247.631073,229.672104 239.715988,224.632111 
	C229.502121,218.128387 227.948608,207.138199 229.347672,196.176025 
	C230.691223,185.648880 236.898117,177.829208 247.207413,174.732117 
	C261.477997,170.444992 275.128479,172.388031 285.040649,184.258835 
	C291.115845,191.534515 295.506805,200.332718 299.915558,208.830383 
	C301.861481,212.581116 303.949585,213.153030 306.766937,211.227051 
	C308.077606,210.331085 308.994812,207.733032 308.848511,206.012131 
	C307.762299,193.236557 306.407196,180.482773 305.010284,167.735977 
	C304.829193,166.083603 303.925476,164.510422 303.356445,162.900589 
	C301.625702,163.683792 299.428772,164.043503 298.256500,165.334000 
	C295.374084,168.507141 292.534119,169.080948 288.523041,167.456879 
	C277.227081,162.883194 265.351532,161.533890 253.239853,162.090729 
	C228.105911,163.246246 206.626831,180.786774 203.697983,204.070160 
	C201.156662,224.272873 205.798752,242.577362 224.716599,253.841080 
	C234.958649,259.939240 246.042053,264.619568 256.716949,269.996979 
	C264.567200,273.951538 272.735138,277.426605 280.117706,282.126587 
	C294.888245,291.530029 299.257568,325.571503 275.824707,336.448395 
	C264.807098,341.562439 253.684280,342.038391 242.446304,337.312439 
	C227.570572,331.056732 220.636536,318.503937 216.035339,303.186340 
z"/>
<path fill="#9A0200" opacity="1.000000" stroke="none" 
	d="
M160.199554,313.030273 
	C162.210281,303.946228 165.627426,295.213684 165.649261,286.472717 
	C165.724518,256.333618 164.630142,226.191177 163.925461,196.051315 
	C163.871231,193.731750 163.433228,191.414642 163.085617,189.109650 
	C161.916061,181.354645 158.180603,178.145737 150.313202,178.079559 
	C149.313339,178.071152 148.313309,178.081726 147.313385,178.076477 
	C142.201996,178.049637 139.791245,174.453690 142.065536,169.716217 
	C142.538010,168.732025 144.735199,168.096481 146.127747,168.113266 
	C153.624405,168.203598 161.118713,168.777145 168.612427,168.752991 
	C178.606552,168.720764 188.604782,168.414154 198.589981,167.971420 
	C202.266373,167.808426 203.259811,169.298019 203.052429,172.649796 
	C202.877213,175.481445 203.595032,178.088379 198.985687,178.184830 
	C182.962250,178.520172 181.760483,179.740677 181.434631,195.785767 
	C180.842514,224.941299 180.630844,254.105164 179.927734,283.257538 
	C179.608170,296.507782 177.309814,309.498413 170.582977,321.197266 
	C160.685242,338.410767 145.315811,347.733673 126.035118,350.892029 
	C111.858231,353.214355 97.740997,352.088959 83.911522,348.557251 
	C60.249271,342.514465 44.987793,324.030975 43.187969,297.654388 
	C41.715141,276.069916 41.669830,254.381073 41.259743,232.733429 
	C40.982010,218.072693 41.287342,203.401642 41.101974,188.738113 
	C40.996567,180.399765 38.452076,178.130798 30.174021,178.080109 
	C28.174206,178.067871 26.148075,177.870667 24.179749,178.119736 
	C19.901320,178.661102 18.814932,176.788742 18.870806,172.736649 
	C18.922527,168.985565 20.122131,167.926422 23.813145,167.949997 
	C47.302456,168.100006 70.793755,168.115402 94.282791,167.949219 
	C98.030075,167.922714 99.288185,168.954239 99.142265,172.713120 
	C99.011749,176.075180 98.973663,178.474869 94.432686,178.185211 
	C90.325966,177.923248 86.079002,178.159714 82.041924,178.941162 
	C77.112129,179.895401 74.041351,183.353409 74.063560,188.470230 
	C74.222588,225.110489 73.476181,261.796814 75.093079,298.376770 
	C76.711517,334.991516 107.826988,342.157166 130.558395,336.560669 
	C143.863190,333.285034 154.322632,326.325317 160.199554,313.030273 
z"/>
<path fill="#9A0200" opacity="1.000000" stroke="none" 
	d="
M406.556946,351.383453 
	C364.066132,347.513763 332.346588,319.130249 326.103973,272.206085 
	C322.281219,243.471115 328.629761,217.146362 346.954712,194.378433 
	C367.800140,168.478836 395.802612,159.965637 427.951538,162.536118 
	C443.731537,163.797852 458.601990,168.373917 473.130249,176.330750 
	C474.163208,173.642914 474.663239,171.154877 475.998810,169.253845 
	C477.010681,167.813614 479.075134,166.384583 480.695557,166.356552 
	C481.773346,166.337921 483.689026,168.695343 483.873932,170.160370 
	C486.000519,187.008011 487.897583,203.885086 489.767578,220.764099 
	C490.021332,223.054550 491.159851,225.674789 487.571899,226.966446 
	C484.111023,228.212402 482.468536,227.709351 480.800903,224.034378 
	C477.172913,216.039154 473.557007,207.841171 468.532013,200.716339 
	C456.355682,183.451782 439.818787,173.221313 418.084076,172.947128 
	C395.295898,172.659637 378.123657,182.661560 368.903931,203.288055 
	C352.628357,239.700180 355.931458,275.457794 378.419678,308.134216 
	C396.839081,334.898499 424.398773,340.319519 456.699341,328.044403 
	C469.245850,323.276367 479.718079,315.427338 487.629120,304.401703 
	C488.199768,303.606354 488.971466,302.955292 489.623199,302.265198 
	C496.957520,306.062042 497.174408,306.889587 492.467499,313.098633 
	C470.971741,341.454376 442.920563,355.211060 406.556946,351.383453 
z"/>
<path fill="#9A0200" opacity="1.000000" stroke="none" 
	d="
M216.120010,303.593048 
	C220.636536,318.503937 227.570572,331.056732 242.446304,337.312439 
	C253.684280,342.038391 264.807098,341.562439 275.824707,336.448395 
	C299.257568,325.571503 294.888245,291.530029 280.117706,282.126587 
	C272.735138,277.426605 264.567200,273.951538 256.716949,269.996979 
	C246.042053,264.619568 234.958649,259.939240 224.716599,253.841080 
	C205.798752,242.577362 201.156662,224.272873 203.697983,204.070160 
	C206.626831,180.786774 228.105911,163.246246 253.239853,162.090729 
	C265.351532,161.533890 277.227081,162.883194 288.523041,167.456879 
	C292.534119,169.080948 295.374084,168.507141 298.256500,165.334000 
	C299.428772,164.043503 301.625702,163.683792 303.356445,162.900574 
	C303.925476,164.510422 304.829193,166.083603 305.010284,167.735977 
	C306.407196,180.482773 307.762299,193.236557 308.848511,206.012131 
	C308.994812,207.733032 308.077606,210.331085 306.766937,211.227051 
	C303.949585,213.153030 301.861481,212.581116 299.915558,208.830383 
	C295.506805,200.332718 291.115845,191.534515 285.040649,184.258835 
	C275.128479,172.388031 261.477997,170.444992 247.207413,174.732117 
	C236.898117,177.829208 230.691223,185.648880 229.347672,196.176025 
	C227.948608,207.138199 229.502121,218.128387 239.715988,224.632111 
	C247.631073,229.672104 256.540314,233.226105 265.201752,236.994431 
	C271.897827,239.907684 279.088654,241.704849 285.722931,244.735138 
	C309.674713,255.675323 320.486267,274.378082 317.750458,300.606995 
	C315.348938,323.631012 304.801178,341.609589 281.837677,348.796265 
	C260.585907,355.447235 239.691711,352.988068 220.542130,340.638000 
	C219.143250,339.735809 217.748352,338.827332 216.358704,337.910980 
	C213.562775,336.067352 211.371826,336.564270 209.774612,339.557037 
	C209.383972,340.289032 209.039139,341.228912 208.398148,341.607605 
	C206.812576,342.544342 204.800598,344.110748 203.467743,343.714844 
	C202.311005,343.371185 201.112595,340.639221 201.207687,339.038574 
	C201.671707,331.229553 202.559494,323.445587 203.304901,315.653503 
	C203.986877,308.524506 204.637192,301.392059 205.390793,294.270599 
	C205.618225,292.121490 205.807571,289.735168 209.112503,290.296143 
	C211.660446,290.728638 214.570206,290.327637 214.776352,294.302399 
	C214.930618,297.277466 215.596985,300.225983 216.120010,303.593048 
z"/>
</svg>